# xmcd
#
# Track frame offsets:
#	150
#	19745
#	36942
#	53967
#	80895
#	99935
#	119540
#	133040
#	153580
#	167012
#	185452
#	202657
#	223470
#	239390
#	253912
#	272260
#	288452
#
# Disc length: 4014 seconds
#
# Revision: 1
# Processed by: cddbd v1.4PL0 Copyright (c) Steve Scherf et al.
# Submitted via: EasyCDDAExtractor 5.1.0
#
DISCID=fa0fac11
DTITLE=Blue Flames - Steppin' Up
DYEAR=1900
DGENRE=
TTITLE0=You Got Me
TTITLE1=Steppin Up In Class
TTITLE2=Frosty
TTITLE3=What Would Muddy Say
TTITLE4=Dead Presidents
TTITLE5=He Knows The Rules
TTITLE6=You Can't Raise Me
TTITLE7=Four O'Clock In The Morning
TTITLE8=Lookin Back
TTITLE9=Look What You've Done
TTITLE10=Two Step Dancin
TTITLE11=Just Got To Know
TTITLE12=Precious Pumpkin
TTITLE13=Talkin Bout My Friends
TTITLE14=G Major Boogie
TTITLE15=Certain Girl
TTITLE16=Don't Start Crying Now
EXTD=
EXTT0=
EXTT1=
EXTT2=
EXTT3=
EXTT4=
EXTT5=
EXTT6=
EXTT7=
EXTT8=
EXTT9=
EXTT10=
EXTT11=
EXTT12=
EXTT13=
EXTT14=
EXTT15=
EXTT16=
PLAYORDER=
